<?xml version="1.0" encoding="utf-8"?>
<svg
	version="1.1"
	xmlns="http://www.w3.org/2000/svg"
	xmlns:xlink="http://www.w3.org/1999/xlink"
	x="0%" y="0%"
	width="100%" height="100%"
	viewBox="0 0 24.0 24.0"
	enable-background="new 0 0 24.0 24.0"
	xml:space="preserve">
<defs>
<filter id="glow0" x="-200%" y="-200%" width="600%" height="600%" >
	<feOffset result="offOut" in="SourceGraphic" dx="0.64469427" dy="0.21722113" />
	<feGaussianBlur result="blurOut" in="offOut" stdDeviation="0.31873763" />
	<feFlood flood-color="#FF54FA" flood-opacity="1.000" result="flood"/>
	<feComposite in="flood" in2="blurOut" operator="in" result="blendOut0"/>
	<feBlend in="blendOut0" in2="blendOut0" result="blendOut1" mode="normal" />
	<feBlend in="SourceGraphic" in2="blendOut1" mode="normal" />
</filter>

	<style type="text/css">
		@font-face {
			font-family: 'elsieSwashCaps'; 
			src: url('./elsieSwashCaps.ttf');
		}
	</style>
</defs>
	<path
		fill="#FEDE00"
		stroke="#000000"
		fill-opacity="1.000"
		stroke-opacity="1.000"
		fill-rule="nonzero"
		stroke-width="0.24"
		filter="url(#glow0)"
		stroke-linejoin="miter"
		stroke-linecap="square"
		d="M6.62,9.77L14.30,6.97A1.40 1.40 0 0 1 16.09,7.81L18.66,14.85A1.40 1.40 0 0 1 17.83,16.64L10.15,19.44A1.40 1.40 0 0 1 8.36,18.61L5.79,11.56A1.40 1.40 0 0 1 6.62,9.77z"/>

	<text 
		font-size="6.8458624"
		font-family="elsieSwashCaps"
		stroke-width="0.24"
		stroke="#6D3400"
		stroke-opacity="1.000"
		fill-opacity="0"
		text-anchor="start"
  		transform="rotate(-20.205833 12.005653 12.188023) scale(1.336801 1.0)" >
		<tspan x="5.4073834" y="13.953021">53</tspan>
	</text> 

	<text 
		font-size="6.8458624"
		font-family="elsieSwashCaps"
		fill="#6D3400"
		stroke-width="0"
		fill-opacity="1.000"
		text-anchor="start"
  		transform="rotate(-20.205833 12.005653 12.188023) scale(1.336801 1.0)" >

		<tspan x="5.4073834" y="13.953021">53</tspan>
	</text>
	<path
		fill="#FEDE00"
		stroke="#FEDE00"
		fill-opacity="1.000"
		stroke-opacity="1.000"
		fill-rule="nonzero"
		stroke-width="0.24"
		stroke-linejoin="miter"
		stroke-linecap="square"
		d="M9.31,16.83C11.44,23.98,8.26,23.97,10.25,16.85"/>
	<path
		fill="#000000"
		stroke="#000000"
		fill-opacity="1.000"
		stroke-opacity="1.000"
		fill-rule="nonzero"
		stroke-width="0.24"
		stroke-linejoin="miter"
		stroke-linecap="square"
		d="M10.73,19.39C11.47,20.96,10.11,20.92,10.73,19.39z"/>
	<path
		fill="#FEDE00"
		stroke="#FEDE00"
		fill-opacity="1.000"
		stroke-opacity="1.000"
		fill-rule="nonzero"
		stroke-width="0.24"
		stroke-linejoin="miter"
		stroke-linecap="square"
		d="M13.66,15.59C18.27,19.24,11.22,19.71,17.89,13.91"/>
</svg>